<svg width="60" height="60" xmlns="http://www.w3.org/2000/svg">

 <g>
  <title>background</title>
  <rect fill="none" id="canvas_background" height="62" width="62" y="-1" x="-1"/>
 </g>
 <g>
  <title>Layer 1</title>
  <g stroke="null" transform="rotate(-0.8541659712791443 32.2648315429697,33.548187255858956) " id="layer1">
   <path stroke="null" d="m6.501064,52.940377c1.966767,2.01923 5.706803,0.550774 8.788865,1.626327c2.499083,0.87212 3.688323,6.565507 6.595102,5.531695c2.906778,-1.033805 7.83486,-3.716886 11.105552,-2.805702c3.270692,0.911176 7.345528,7.089156 9.979049,4.071931c2.236676,-2.562563 3.306341,-8.949771 8.900608,-8.306245c5.611375,0.645491 6.822138,0.213498 6.069018,-6.761651c-0.436872,-4.046213 3.045074,-7.406536 -1.665803,-10.548237c-7.345922,-4.899011 -19.029211,-1.851386 -26.107809,2.94112c-8.105513,5.487753 -26.620341,11.216164 -23.664582,14.250763z" id="path3282" stroke-width="1px" fill-rule="evenodd" fill="#ffffff"/>
   <path stroke="null" d="m50.931435,27.342206c0,12.188399 4.909433,15.330485 4.909433,20.98334c0,3.135328 -4.855551,-3.867665 -7.579738,-2.282594c-2.526655,1.470135 -5.639069,2.858894 -8.798517,0.669206c-1.881524,-1.304012 0.742119,-3.426649 -2.895589,-3.426649c-2.901634,0 -7.323849,2.104038 -10.090583,2.55731c-2.515273,0.412073 -5.200263,-2.279374 -9.637882,-0.745357c-2.759693,0.953984 -12.523831,7.755784 -12.523831,4.620465c0,-3.993024 4.564036,-8.34294 4.564036,-22.37572c0,-13.594482 9.4198,-24.627687 21.026335,-24.627687c11.606538,0 21.026336,11.033205 21.026336,24.627687z" id="path2399" stroke-miterlimit="4" stroke-linejoin="round" stroke-linecap="round" stroke-width="3.710362" fill-rule="nonzero" fill-opacity="0.627451" fill="#dbdbe3"/>
   <path stroke="#000000" d="m50.931435,27.342206c0,12.188399 4.909433,15.330485 4.909433,20.98334c0,3.135328 -6.705302,0.847997 -9.429493,2.43307c-2.526655,1.470129 -1.491605,3.68468 -5.129435,5.105511c-2.613642,1.020807 -6.098476,-3.633163 -9.736184,-3.633163c-2.901632,0 -8.25711,3.922674 -10.772384,2.675905c-2.515274,-1.246784 -2.276699,-5.400401 -6.165646,-5.801702c-2.902353,-0.299506 -10.292998,3.748078 -10.292998,0.612759c0,-3.993024 4.564036,-8.34294 4.564036,-22.37572c0,-13.594482 9.4198,-24.627687 21.026335,-24.627687c11.606538,0 21.026336,11.033205 21.026336,24.627687z" id="path2383" stroke-miterlimit="4" stroke-linejoin="round" stroke-linecap="round" stroke-width="3.710362" fill-rule="nonzero" fill="#ffffff"/>
   <path stroke="#000000" d="m22.973679,14.874892c-2.820608,0.000004 -5.109706,2.650623 -5.109706,5.916767c0,3.266141 2.289097,5.91676 5.109706,5.91676c2.179374,0.000008 4.040963,-1.584283 4.77499,-3.810436c0.734028,2.226151 2.595613,3.810444 4.774986,3.810436c2.820607,0 5.10971,-2.650619 5.10971,-5.91676c0,-3.266144 -2.289103,-5.916763 -5.10971,-5.916767c-2.178943,0 -4.040662,1.57969 -4.774986,3.80515c-0.73433,-2.22546 -2.596049,-3.80515 -4.77499,-3.80515z" id="path2387" stroke-miterlimit="4" stroke-linejoin="round" stroke-linecap="round" stroke-width="4" fill-rule="nonzero" fill="#ffffff"/>
   <path stroke="null" d="m33.524086,21.809467a2.21249,2.238835 0 1 1 -4.424979,0a2.21249,2.238835 0 1 1 4.424979,0z" id="path2389" stroke-miterlimit="4" stroke-linejoin="round" stroke-linecap="round" stroke-width="55.657169" fill-rule="nonzero" fill="#000000"/>
   <path stroke="null" d="m26.502978,21.809467a2.21249,2.238835 0 1 1 -4.424981,0a2.21249,2.238835 0 1 1 4.424981,0z" id="path2396" stroke-miterlimit="4" stroke-linejoin="round" stroke-linecap="round" stroke-width="55.657169" fill-rule="nonzero" fill="#000000"/>
   <path stroke="null" d="m43.625985,11.098388c0.809631,-0.287528 4.882919,5.143074 5.625577,10.850119c0.505114,3.881599 0.290977,9.872632 0.872934,13.293839c0.581956,3.421215 5.612307,12.30185 3.588731,12.218608c-4.752644,-0.195494 -7.784565,-7.900206 -6.699391,-18.919905c1.223808,-12.427475 -5.298141,-16.764248 -3.38785,-17.44266z" id="path2398" stroke-width="1px" fill-rule="evenodd" fill-opacity="0.117647" fill="#000000"/>
   <path stroke="null" d="m45.565836,49.709179c-1.099901,1.085922 -3.103765,6.255925 -4.170684,3.909951c-1.066919,-2.345976 -0.176496,-6.523557 -0.969929,-12.70735c-0.603489,-4.703442 -2.823911,-10.31605 -1.190298,-9.460797c1.627912,0.852274 2.810985,3.42146 4.294068,7.896812c1.296618,3.912692 3.354597,9.060377 2.036842,10.361384z" id="path3170" stroke-width="1px" fill-rule="evenodd" fill-opacity="0.117647" fill="#000000"/>
   <path stroke="null" d="m29.755196,51.006509c-1.052217,1.132901 -3.627201,2.481909 -4.929986,2.226536c-1.716149,-0.336389 -1.980436,-6.136156 -1.291332,-9.906171c0.678946,-3.714456 1.987091,-9.129486 3.080231,-9.941752c1.329433,-0.987845 0.096295,3.701048 1.343276,10.147075c0.954172,4.932413 2.824586,6.368807 1.797811,7.474312z" id="path3172" stroke-width="1px" fill-rule="evenodd" fill-opacity="0.117647" fill="#000000"/>
   <path stroke="null" d="m15.69209,47.851949c-1.523622,-0.224013 -2.964889,0.157617 -4.170684,0.488742c-1.686809,0.463219 -0.107148,-2.094913 2.133838,-6.549173c1.694817,-3.368675 2.092519,-6.840532 3.075359,-7.78517c1.170751,-1.125241 -0.327485,3.275907 -0.605491,7.551228c-0.257835,3.965138 0.690748,6.459602 -0.433021,6.294373z" id="path3174" stroke-width="1px" fill-rule="evenodd" fill-opacity="0.117647" fill="#000000"/>
   <path stroke="null" d="m12.491334,17.647556c3.749727,-10.183975 10.967064,-12.322297 12.803036,-12.218602c2.7882,0.157483 2.019633,4.233358 -3.394746,5.669433c-5.518425,1.463672 -11.381132,11.90726 -9.40829,6.549169z" id="path3279" stroke-width="1px" fill-rule="evenodd" fill-opacity="0.627451" fill="#ffffff"/>
  </g>
 </g>
</svg>