<svg width="32" height="29.999999999999996" xmlns="http://www.w3.org/2000/svg">
 <g>
  <title>background</title>
  <rect fill="none" id="canvas_background" height="32" width="34" y="-1" x="-1"/>
 </g>

 <g>
  <title>Layer 1</title>
  <g stroke="null" style="vector-effect: non-scaling-stroke;" transform="translate(3.25,-0.5) translate(-3,-29) translate(3.5082647800445557,64.80655670166016) scale(0.5512020587921143,0.5515699982643127) translate(-3.5082647800445557,-64.80655670166016) translate(3.5082647800445557,2.366485357284546) scale(0.840331494808197,0.8558617830276489) translate(-3.5082647800445557,-2.366485357284546) " id="layer1">
   <path stroke="null" style="vector-effect: non-scaling-stroke;" transform="rotate(-0.8541659712791443 32.68915176391607,47.718177795410085) " d="m6.71235,52.93563c1.96677,2.01923 5.7068,0.55077 8.78886,1.62632c2.49909,0.87212 3.68833,6.56551 6.59511,5.5317c2.90677,-1.03381 7.83486,-3.71689 11.10555,-2.8057c3.27069,0.91117 7.34553,7.08915 9.97905,4.07193c2.23667,-2.56257 3.30634,-8.94977 8.90061,-8.30625c5.61137,0.64549 6.82213,0.2135 6.06901,-6.76165c-0.43687,-4.04621 3.04508,-7.40653 -1.6658,-10.54824c-7.34592,-4.89901 -19.02921,-1.85138 -26.10781,2.94112c-8.10551,5.48776 -26.62034,11.21617 -23.66458,14.25077z" id="path3282" stroke-width="0.5" fill-rule="evenodd" fill="#ff0000"/>
   <path stroke="null" style="vector-effect: non-scaling-stroke;" transform="rotate(-0.8541659712791443 29.97484970092832,26.659471511840955) " d="m50.82849,27.37558c0,12.1884 4.90943,15.33048 4.90943,20.98334c0,3.13533 -4.85555,-3.86767 -7.57974,-2.2826c-2.52665,1.47014 -5.63907,2.8589 -8.79851,0.66921c-1.88153,-1.30401 0.74212,-3.42665 -2.89559,-3.42665c-2.90164,0 -7.32385,2.10404 -10.09059,2.55731c-2.51527,0.41207 -5.20026,-2.27937 -9.63788,-0.74536c-2.75969,0.95399 -12.52383,7.75579 -12.52383,4.62047c0,-3.99302 4.56404,-8.34294 4.56404,-22.37572c0,-13.59448 9.4198,-24.62769 21.02633,-24.62769c11.60654,0 21.02634,11.03321 21.02634,24.62769z" id="path2399" stroke-miterlimit="4" stroke-linejoin="round" stroke-linecap="round" stroke-width="0.5" fill-rule="nonzero" fill-opacity="0.627451" fill="#ff0000"/>
   <path stroke="#000000" transform="rotate(-0.8541659712791443 30.01564025879013,29.395566940307447) " d="m50.86928,27.37527c0,12.1884 4.90943,15.33049 4.90943,20.98334c0,3.13533 -6.7053,0.848 -9.42949,2.43307c-2.52665,1.47013 -1.4916,3.68468 -5.12943,5.10552c-2.61365,1.0208 -6.09848,-3.63317 -9.73619,-3.63317c-2.90163,0 -8.25711,3.92268 -10.77238,2.67591c-2.51528,-1.24679 -2.2767,-5.4004 -6.16565,-5.8017c-2.90235,-0.29951 -10.293,3.74807 -10.293,0.61275c0,-3.99302 4.56404,-8.34294 4.56404,-22.37572c0,-13.59448 9.4198,-24.62768 21.02633,-24.62768c11.60654,0 21.02634,11.0332 21.02634,24.62768z" id="path2383" stroke-miterlimit="4" stroke-linejoin="round" stroke-linecap="round" stroke-width="0.5" fill-rule="nonzero" fill="#ff0000"/>
   <path stroke="#000000" transform="rotate(-0.8541659712791443 27.559005737305295,20.86039543151871) " d="m22.78401,14.94363c-2.8206,0.00001 -5.1097,2.65063 -5.1097,5.91677c0,3.26614 2.2891,5.91676 5.1097,5.91676c2.17938,0.00001 4.04097,-1.58428 4.77499,-3.81043c0.73403,2.22615 2.59562,3.81044 4.77499,3.81043c2.82061,0 5.10971,-2.65062 5.10971,-5.91676c0,-3.26614 -2.2891,-5.91676 -5.10971,-5.91677c-2.17894,0 -4.04066,1.57969 -4.77499,3.80515c-0.73433,-2.22546 -2.59604,-3.80515 -4.77499,-3.80515z" id="path2387" stroke-miterlimit="4" stroke-linejoin="round" stroke-linecap="round" stroke-width="0.5" fill-rule="nonzero" fill="#fcfcfc"/>
   <path stroke="null" style="vector-effect: non-scaling-stroke;" id="path2389" stroke-miterlimit="4" stroke-linejoin="round" stroke-linecap="round" stroke-width="55.657169" fill-rule="nonzero" fill="#ff0000"/>
   <path stroke="null" style="vector-effect: non-scaling-stroke;" id="svg_1" fill="#ff0000"/>
   <path stroke="null" style="vector-effect: non-scaling-stroke;" id="svg_2" fill="#ff0000"/>
   <path stroke="null" style="vector-effect: non-scaling-stroke;" id="svg_3" fill="#ff0000"/>
   <path stroke="null" style="vector-effect: non-scaling-stroke;" id="svg_4" fill="#ff0000"/>
   <path stroke="null" style="vector-effect: non-scaling-stroke;" transform="translate(1,1) " id="svg_5" fill="#ff0000"/>
   <path stroke="null" style="vector-effect: non-scaling-stroke;" transform="translate(0.33898305892944336,0) translate(3.5082647800445557,64.80655670166016) scale(0.5512020587921143,0.5515699982643127) translate(-3.5082647800445557,-64.80655670166016) translate(6.364752769470215,117.49471282958984) scale(0.5512020587921143,0.5515699982643127) translate(-6.364752769470215,-117.49471282958984) translate(11.547040939331055,213.0186767578125) scale(0.5512020587921143,0.5515699982643127) translate(-11.547040939331055,-213.0186767578125) translate(20.948835372924805,386.2042541503906) scale(0.5512020587921143,0.5515699982643127) translate(-20.948835372924805,-386.2042541503906) translate(38.0057258605957,700.1907958984375) scale(0.5512020587921143,0.5515699982643127) translate(-38.0057258605957,-700.1907958984375) translate(68.95062255859375,46.35543441772461) scale(0.840331494808197,0.8558617830276489) translate(-68.95062255859375,-46.35543441772461) translate(82.05169677734375,54.162288665771484) scale(0.840331494808197,0.8558617830276489) translate(-82.05169677734375,-54.162288665771484) translate(97.64205932617188,63.28392028808594) scale(0.840331494808197,0.8558617830276489) translate(-97.64205932617188,-63.28392028808594) translate(116.19469451904297,73.9417495727539) scale(0.840331494808197,0.8558617830276489) translate(-116.19469451904297,-73.9417495727539) translate(138.27244567871094,86.39450073242188) scale(0.840331494808197,0.8558617830276489) translate(-138.27244567871094,-86.39450073242188) translate(164.5451202392578,100.9444580078125) scale(0.840331494808197,0.8558617830276489) translate(-164.5451202392578,-100.9444580078125) translate(195.8097686767578,117.94480895996094) scale(0.840331494808197,0.8558617830276489) translate(-195.8097686767578,-117.94480895996094) " id="path2396" stroke-miterlimit="4" stroke-linejoin="round" stroke-linecap="round" stroke-width="55.657169" fill-rule="nonzero" fill="#ff0000"/>
   <path stroke="null" style="vector-effect: non-scaling-stroke;" d="m4.127378,22.461862c0.012124,-0.005144 0.074663,0.087059 0.087124,0.184861c0.008475,0.066519 0.006596,0.169442 0.016125,0.228037c0.009529,0.058595 0.08725,0.209791 0.056768,0.20888c-0.071592,-0.00214 -0.118964,-0.133657 -0.105101,-0.323147c0.015634,-0.213698 -0.083522,-0.286492 -0.054917,-0.29863z" id="path2398" stroke-width="0.5" fill-rule="evenodd" fill-opacity="0.117647" fill="#ff0000"/>
   <path stroke="null" style="vector-effect: non-scaling-stroke;" d="m4.165247,23.124328c-0.016314,0.018927 -0.045321,0.108211 -0.061909,0.068203c-0.016588,-0.040008 -0.004121,-0.111967 -0.017454,-0.217942c-0.010141,-0.080605 -0.044827,-0.176408 -0.020043,-0.162141c0.024698,0.014217 0.043085,0.058028 0.066417,0.134492c0.020398,0.066851 0.052535,0.154712 0.032989,0.177388z" id="path3170" stroke-width="0.5" fill-rule="evenodd" fill-opacity="0.117647" fill="#ff0000"/>
   <path stroke="null" style="vector-effect: non-scaling-stroke;" d="m3.92752,23.150651c-0.015586,0.019722 -0.054048,0.043544 -0.073718,0.039492c-0.025911,-0.005337 -0.031191,-0.104853 -0.021663,-0.169762c0.009387,-0.063953 0.027865,-0.157266 0.044139,-0.171492c0.019792,-0.017302 0.00228,0.063524 0.0225,0.173885c0.015471,0.084447 0.043952,0.108632 0.028742,0.127877z" id="path3172" stroke-width="0.5" fill-rule="evenodd" fill-opacity="0.117647" fill="#ff0000"/>
   <path stroke="null" style="vector-effect: non-scaling-stroke;" d="m3.715102,23.100086c-0.022987,-0.003456 -0.044599,0.003465 -0.062677,0.00946c-0.02529,0.008385 -0.002083,-0.035943 0.030654,-0.112998c0.024758,-0.058275 0.029966,-0.11799 0.04455,-0.134462c0.017372,-0.019621 -0.004195,0.056333 -0.00742,0.129813c-0.002992,0.068149 0.011849,0.110737 -0.005106,0.108188z" id="path3174" stroke-width="0.5" fill-rule="evenodd" fill-opacity="0.117647" fill="#ff0000"/>
   <path stroke="null" d="m3.660137,22.582284c0.054164,-0.175823 0.162336,-0.214386 0.189998,-0.213076c0.04201,0.00199 0.031354,0.072171 -0.049833,0.098215c-0.082747,0.026545 -0.168662,0.207366 -0.140165,0.11486z" id="path3279" stroke-width="0.5" fill-rule="evenodd" fill="#ff0000"/>
  </g>
 </g>
</svg>